<?xml version="1.0" encoding="UTF-8" standalone="no"?>
<!-- Created with Inkscape (http://www.inkscape.org/) -->

<svg
   xmlns:dc="http://purl.org/dc/elements/1.1/"
   xmlns:cc="http://creativecommons.org/ns#"
   xmlns:rdf="http://www.w3.org/1999/02/22-rdf-syntax-ns#"
   xmlns:svg="http://www.w3.org/2000/svg"
   xmlns="http://www.w3.org/2000/svg"
   xmlns:sodipodi="http://sodipodi.sourceforge.net/DTD/sodipodi-0.dtd"
   xmlns:inkscape="http://www.inkscape.org/namespaces/inkscape"
   width="744.09448819"
   height="1052.3622047"
   id="svg2"
   version="1.1"
   inkscape:version="0.48.2 r9819"
   sodipodi:docname="bullet.svg"
   inkscape:export-filename="/Users/claytonmdrazner/Desktop/HackRice14/Images/bullet.png"
   inkscape:export-xdpi="90"
   inkscape:export-ydpi="90">
  <defs
     id="defs4" />
  <sodipodi:namedview
     id="base"
     pagecolor="#ffffff"
     bordercolor="#666666"
     borderopacity="1.0"
     inkscape:pageopacity="0.0"
     inkscape:pageshadow="2"
     inkscape:zoom="0.98994949"
     inkscape:cx="5.3702244"
     inkscape:cy="510.27462"
     inkscape:document-units="px"
     inkscape:current-layer="layer1"
     showgrid="true"
     inkscape:window-width="1670"
     inkscape:window-height="833"
     inkscape:window-x="0"
     inkscape:window-y="0"
     inkscape:window-maximized="0">
    <inkscape:grid
       type="xygrid"
       id="grid2997" />
  </sodipodi:namedview>
  <metadata
     id="metadata7">
    <rdf:RDF>
      <cc:Work
         rdf:about="">
        <dc:format>image/svg+xml</dc:format>
        <dc:type
           rdf:resource="http://purl.org/dc/dcmitype/StillImage" />
        <dc:title />
      </cc:Work>
    </rdf:RDF>
  </metadata>
  <g
     inkscape:label="Layer 1"
     inkscape:groupmode="layer"
     id="layer1">
    <path
       sodipodi:type="arc"
       style="fill:#000000;fill-opacity:1;stroke:#ffffff;stroke-opacity:1"
       id="path3001"
       sodipodi:cx="360"
       sodipodi:cy="492.36218"
       sodipodi:rx="120"
       sodipodi:ry="120"
       d="m 480,492.36218 a 120,120 0 1 1 -240,0 120,120 0 1 1 240,0 z" />
    <path
       sodipodi:type="arc"
       style="fill:#ff0000;fill-opacity:1;stroke:#ffffff;stroke-opacity:1"
       id="path2999"
       sodipodi:cx="360"
       sodipodi:cy="492.36218"
       sodipodi:rx="80"
       sodipodi:ry="80"
       d="m 440,492.36218 a 80,80 0 1 1 -160,0 80,80 0 1 1 160,0 z" />
    <path
       style="fill:#0000ff;fill-opacity:1;stroke:#0000ff;stroke-opacity:1"
       d="m 354.03474,571.30895 c -10.67139,-1.04381 -18.5781,-3.13974 -27.77919,-7.36379 -18.03298,-8.2786 -33.53456,-25.12585 -40.4226,-43.93164 -10.6278,-29.01615 -4.00011,-60.49278 17.40281,-82.65041 18.8763,-19.54192 46.12849,-27.94106 72.99744,-22.49786 12.54552,2.54152 25.94506,9.29101 36.03418,18.15081 14.05749,12.34464 23.07738,28.90789 26.12112,47.96627 0.87049,5.45059 0.78059,18.1022 -0.16868,23.73859 -3.6184,21.48464 -14.96597,39.63166 -32.76868,52.40362 -14.12942,10.13668 -34.72129,15.81743 -51.4164,14.18441 z"
       id="path2986"
       inkscape:connector-curvature="0" />
    <path
       style="fill:#0000ff;fill-opacity:1;stroke:none"
       d=""
       id="path2988"
       inkscape:connector-curvature="0" />
    <path
       style="fill:#0000ff;fill-opacity:1;stroke:none"
       d="m 347.21621,570.09665 c -14.03873,-2.42632 -26.47845,-8.0973 -37.15525,-16.93822 -15.4324,-12.7788 -25.47365,-30.71111 -28.20898,-50.3774 -0.70041,-5.03581 -0.70509,-15.77777 -0.009,-20.87827 2.34295,-17.16985 10.17454,-32.68546 22.91057,-45.3894 11.35204,-11.32344 25.58376,-18.79483 41.4526,-21.76183 3.75756,-0.70255 7.37853,-0.9428 14.14214,-0.93834 10.56724,0.007 17.4266,1.11965 25.50635,4.13746 27.24868,10.17745 45.44334,31.18252 51.58192,59.54942 1.56824,7.24697 1.57086,21.32957 0.005,29.35619 -5.39385,27.65717 -24.96905,50.47012 -51.20213,59.67099 -4.72124,1.6559 -11.2207,3.26334 -16.54769,4.09254 -5.22483,0.8133 -16.22466,0.55727 -22.4759,-0.52314 l 10e-6,0 z"
       id="path2990"
       inkscape:connector-curvature="0" />
    <path
       style="fill:#0000ff;fill-opacity:1;stroke:none"
       d="m 348.73144,570.3991 c -9.0359,-1.51749 -14.73147,-3.28806 -22.77475,-7.07996 -23.5588,-11.10649 -40.45509,-34.29833 -44.10471,-60.53811 -0.70041,-5.03581 -0.70509,-15.77777 -0.009,-20.87827 4.08549,-29.93975 26.08758,-55.94503 54.7745,-64.74051 8.78628,-2.69389 13.1778,-3.31768 23.47827,-3.33495 10.67863,-0.0179 17.20696,1.0035 25.4232,3.97766 19.72499,7.14016 35.29848,20.67785 44.5149,38.69581 18.24853,35.67564 7.03696,78.73013 -26.41766,101.44873 -7.31184,4.96538 -18.45058,9.55455 -28.39919,11.70048 -6.57842,1.41898 -20.20227,1.80432 -26.48547,0.74912 l 0,0 z"
       id="path2992"
       inkscape:connector-curvature="0" />
    <path
       style="fill:#0000ff;fill-opacity:1;stroke:none"
       d="m 348.73144,570.3991 c -9.0359,-1.51749 -14.73147,-3.28806 -22.77475,-7.07996 -8.70733,-4.10496 -15.93131,-9.36462 -22.79716,-16.59825 -11.86717,-12.50285 -19.13424,-27.65463 -21.38859,-44.59506 -0.86956,-6.53441 -0.35884,-19.36332 1.03275,-25.94172 5.78828,-27.36263 27.21953,-50.86802 53.8137,-59.02186 9.03685,-2.77072 13.12856,-3.3361 23.98334,-3.31396 11.10642,0.0226 16.34367,0.85284 24.88503,3.94469 19.81402,7.17238 35.30007,20.62822 44.548,38.70779 19.87438,38.85415 4.42519,86.45601 -34.40025,105.99364 -6.13235,3.08591 -13.4669,5.6565 -20.4166,7.15557 -6.57842,1.41898 -20.20227,1.80432 -26.48547,0.74912 z"
       id="path2994"
       inkscape:connector-curvature="0" />
    <path
       style="fill:#0000ff;fill-opacity:1;stroke:none"
       d=""
       id="path2998"
       inkscape:connector-curvature="0" />
    <path
       style="fill:#0000ff;fill-opacity:1;stroke:none"
       d=""
       id="path3000"
       inkscape:connector-curvature="0" />
    <path
       style="fill:#0000ff;fill-opacity:1;stroke:#0000ff;stroke-opacity:1"
       d="m 354.21797,572.56459 c -13.48386,-1.07243 -25.86117,-5.14422 -37.05357,-12.18958 -17.55843,-11.05263 -30.32342,-28.76351 -35.25404,-48.91349 -0.74266,-3.03504 -1.39321,-6.68799 -1.83647,-10.31208 -0.45299,-3.70357 -0.45224,-13.98555 0.001,-17.67857 2.34205,-19.07134 10.36487,-35.43933 23.81107,-48.57886 6.42164,-6.27518 12.64686,-10.68069 20.68887,-14.64126 8.55533,-4.21337 16.32736,-6.50692 26.42857,-7.79914 3.57805,-0.45773 14.4213,-0.45621 18.03572,0.003 9.63183,1.22246 17.55473,3.51393 25.76447,7.45165 18.36525,8.8087 32.89405,24.54866 40.21283,43.56509 7.54903,19.61471 7.11913,41.45674 -1.19499,60.71429 -10.67036,24.71521 -33.28693,42.64033 -59.69303,47.31067 -6.3735,1.12725 -14.01679,1.53753 -19.91071,1.06876 z m 14.91071,-1.13271 c 21.32778,-2.59917 40.10848,-13.09059 53.40949,-29.83601 7.8287,-9.85601 13.40431,-22.16183 15.69622,-34.64285 1.43705,-7.82569 1.69061,-16.75554 0.70227,-24.73215 -1.59331,-12.85908 -6.65857,-25.69813 -14.33657,-36.33928 -12.055,-16.70738 -29.8333,-27.98616 -50.08263,-31.77308 -5.65632,-1.05781 -12.58952,-1.50808 -18.39786,-1.19481 -11.36854,0.61315 -20.88788,3.04169 -30.8302,7.86528 -16.32097,7.91823 -29.10128,20.74814 -37.04856,37.19233 -8.78811,18.18399 -10.2133,39.56055 -3.93238,58.98171 4.98726,15.42102 14.72167,29.07132 27.76665,38.93641 11.35678,8.58841 24.933,14.00079 38.92857,15.51951 1.375,0.14921 2.86161,0.30314 3.30358,0.34207 2.10134,0.1851 12.52574,-0.0394 14.82142,-0.31913 z"
       id="path3002"
       inkscape:connector-curvature="0" />
    <path
       style="fill:#0000ff;fill-opacity:1;stroke:none"
       d="m 351.76921,572.21856 c -12.3429,-1.41033 -23.25264,-5.09659 -33.51263,-11.32349 -12.4326,-7.54548 -22.76624,-18.64983 -29.59018,-31.79711 -4.76557,-9.18154 -7.86404,-19.90705 -8.64196,-29.91462 -0.36606,-4.70926 -0.18308,-13.38352 0.36536,-17.31961 2.3976,-17.20746 9.80715,-32.56722 21.69007,-44.96287 6.50968,-6.79056 13.25033,-11.80656 21.50297,-16.00127 8.64131,-4.39226 16.63643,-6.86819 26.61727,-8.24281 2.78183,-0.38313 12.56418,-0.54948 16.34949,-0.27802 6.1152,0.43855 12.81513,1.80873 18.99113,3.88383 20.18633,6.78247 37.01531,21.5262 46.44537,40.69043 3.87753,7.88011 6.24635,15.53926 7.48345,24.19642 0.56573,3.95897 0.72676,6.46641 0.72819,11.33929 0.002,5.55813 -0.32423,9.26764 -1.27065,14.46429 -6.0797,33.38271 -33.34319,59.76185 -66.91565,64.7451 -6.30807,0.93632 -14.71159,1.15238 -20.24223,0.52044 l 0,0 z m 14.3767,-0.5379 c 14.11468,-0.78265 29.55734,-6.52581 41.37563,-15.38769 6.22175,-4.66534 12.22193,-10.68242 16.61459,-16.66138 13.97586,-19.02291 18.83027,-43.44002 13.18903,-66.33929 -5.46055,-22.16578 -20.21436,-40.9722 -40.42381,-51.52751 -6.50405,-3.39704 -13.64379,-5.94526 -20.76067,-7.40961 -8.18119,-1.68335 -17.48899,-2.02972 -26.15022,-0.97313 -8.9521,1.09206 -16.77717,3.44696 -25.23678,7.59482 -12.68119,6.21775 -23.07048,15.31593 -30.88585,27.04757 -7.39274,11.09722 -11.56909,22.60158 -13.07269,36.01057 -0.38192,3.40595 -0.43529,12.75244 -0.0906,15.86443 0.81777,7.38277 2.21758,13.6234 4.40484,19.63766 6.22773,17.12425 18.24736,31.70844 33.93,41.16944 2.05634,1.24055 6.79412,3.6592 9.27771,4.7363 6.78871,2.94419 14.22003,4.97811 21.48808,5.88123 1.5431,0.19174 3.04671,0.37957 3.34135,0.41739 1.14946,0.14754 9.98753,0.10621 12.99937,-0.0608 l 0,0 z"
       id="path3004"
       inkscape:connector-curvature="0" />
    <path
       style="fill:#0000ff;fill-opacity:1;stroke:none"
       d="m 351.76921,572.21856 c -18.93682,-2.16376 -35.3054,-9.97333 -48.45102,-23.11634 -13.58532,-13.58262 -21.94266,-31.62821 -23.32199,-50.35801 -0.26484,-3.59624 -0.0913,-13.42198 0.28554,-16.16619 2.46121,-17.92358 9.79421,-33.23161 21.96714,-45.85756 6.46301,-6.70354 13.22879,-11.72134 21.34409,-15.82972 8.7409,-4.42509 16.58605,-6.85284 26.60714,-8.2338 2.78146,-0.3833 12.56295,-0.54973 16.34949,-0.27818 7.8939,0.5661 16.74647,2.70117 24.20567,5.83794 18.08496,7.60514 32.64179,21.28127 41.23083,38.73632 3.88613,7.89757 6.24361,15.52008 7.48345,24.19642 0.56573,3.95897 0.72676,6.46641 0.72819,11.33929 0.004,11.96225 -2.39535,22.90773 -7.35769,33.57143 -11.40189,24.5018 -34.84196,42.00474 -61.21137,45.70715 -6.21922,0.87321 -14.51652,1.06174 -19.85947,0.45125 l 0,0 z m 14.20744,-0.53507 c 14.03063,-0.73783 29.28648,-6.34811 41.18775,-15.14663 6.4005,-4.73185 12.38912,-10.72128 17.08152,-17.08384 8.49351,-11.51661 13.65106,-25.22613 15.08168,-40.08929 0.28182,-2.92801 0.28144,-11.25606 -7.2e-4,-14.19643 -1.61123,-16.79485 -8.23333,-32.34017 -19.16933,-45 -2.43043,-2.81353 -7.32738,-7.54389 -10.13601,-9.79117 -12.10519,-9.68579 -26.37652,-15.59227 -41.51786,-17.18302 -1.375,-0.14446 -4.46875,-0.31144 -6.875,-0.37107 -10.60526,-0.26283 -21.06146,1.56095 -30.51878,5.3231 -16.11868,6.41208 -29.09401,17.06657 -38.23633,31.39716 -8.64093,13.54467 -12.90492,29.01489 -12.42777,45.08929 0.62263,20.97538 9.09937,40.29352 24.05721,54.82537 5.79188,5.62693 11.49076,9.75238 18.59675,13.46227 9.41821,4.91706 18.57171,7.59638 30.13607,8.82115 1.37851,0.146 9.57905,0.10938 12.74082,-0.0569 z"
       id="path3006"
       inkscape:connector-curvature="0" />
  </g>
</svg>
