<?xml version="1.0" encoding="UTF-8" standalone="no"?>
<!-- Created with Inkscape (http://www.inkscape.org/) -->

<svg
   xmlns:dc="http://purl.org/dc/elements/1.1/"
   xmlns:cc="http://creativecommons.org/ns#"
   xmlns:rdf="http://www.w3.org/1999/02/22-rdf-syntax-ns#"
   xmlns:svg="http://www.w3.org/2000/svg"
   xmlns="http://www.w3.org/2000/svg"
   xmlns:sodipodi="http://sodipodi.sourceforge.net/DTD/sodipodi-0.dtd"
   xmlns:inkscape="http://www.inkscape.org/namespaces/inkscape"
   width="744.09448819"
   height="1052.3622047"
   id="svg3774"
   version="1.1"
   inkscape:version="0.48.2 r9819"
   sodipodi:docname="DeadTimeMachine.svg"
   inkscape:export-filename="/Users/claytonmdrazner/Desktop/HackRice14/Images/DeadTimeMachine.png"
   inkscape:export-xdpi="90"
   inkscape:export-ydpi="90">
  <defs
     id="defs3776" />
  <sodipodi:namedview
     id="base"
     pagecolor="#ffffff"
     bordercolor="#666666"
     borderopacity="1.0"
     inkscape:pageopacity="0.0"
     inkscape:pageshadow="2"
     inkscape:zoom="0.98994949"
     inkscape:cx="332.95239"
     inkscape:cy="610.13982"
     inkscape:document-units="px"
     inkscape:current-layer="g4367"
     showgrid="false"
     inkscape:window-width="1680"
     inkscape:window-height="930"
     inkscape:window-x="0"
     inkscape:window-y="0"
     inkscape:window-maximized="1" />
  <metadata
     id="metadata3779">
    <rdf:RDF>
      <cc:Work
         rdf:about="">
        <dc:format>image/svg+xml</dc:format>
        <dc:type
           rdf:resource="http://purl.org/dc/dcmitype/StillImage" />
        <dc:title></dc:title>
      </cc:Work>
    </rdf:RDF>
  </metadata>
  <g
     inkscape:label="Layer 1"
     inkscape:groupmode="layer"
     id="layer1">
    <g
       id="g4367">
      <g
         id="g4357">
        <path
           style="fill:#000080;fill-opacity:1;stroke:#000000;stroke-width:10;stroke-miterlimit:4;stroke-opacity:1"
           d="m 581.84785,480.61584 c 0,84.79956 -122.17607,149.50258 -208.09142,149.50258 -85.91534,0 -108.08632,-73.79439 -108.08632,-158.59395 0,-84.79955 69.64815,-153.54318 155.56349,-153.54318 85.91535,0 160.61425,77.835 160.61425,162.63455 z"
           id="path4300"
           inkscape:connector-curvature="0"
           sodipodi:nodetypes="sssss" />
        <path
           style="fill:#00ffff;fill-opacity:1;stroke:#000000;stroke-width:10;stroke-miterlimit:4;stroke-opacity:1;stroke-dasharray:none"
           d="m 594.97985,629.10827 c -29.23973,44.80714 -145.35706,-68.08156 -145.35706,-68.08156 0,0 -17.83101,159.63518 -69.23945,144.80908 -54.49552,-15.71641 19.61686,-169.01505 19.61686,-169.01505 0,0 -161.92297,78.25492 -193.3631,21.53278 -24.54698,-44.286 94.26325,-119.11624 94.26325,-119.11624 0,0 -88.037,-64.30361 -53.41298,-105.09355 34.62402,-40.78994 105.12952,-94.59241 145.35706,68.08156 0,0 16.66745,-154.75016 69.23946,-144.80908 71.42461,13.506 15.73847,217.50238 15.73847,217.50238 0,0 98.39264,-70.2922 155.98746,-69.00996 120.07605,2.67327 -157.90286,119.11624 -157.90286,119.11624 0,0 147.88269,59.93508 119.07289,104.0834 z"
           id="path4297"
           inkscape:connector-curvature="0"
           sodipodi:nodetypes="acacacscacsca" />
        <path
           transform="matrix(1.3452264,0,0,1.3452264,-16.033815,-55.810795)"
           style="fill:#ff00ff;fill-opacity:1;stroke:#000000;stroke-width:10;stroke-linejoin:round;stroke-miterlimit:4;stroke-opacity:1"
           d="m 270.56013,277.49009 c -1.00087,20.47797 -60.29705,35.51432 -62.97378,57.66378 -2.97854,24.64687 -44.95179,-17.41203 -44.95179,-38.89087 0,-21.47884 20.1256,-38.89087 44.95179,-38.89087 24.82619,0 64.02231,-1.33527 62.97378,20.11796 z"
           id="path4302"
           inkscape:connector-curvature="0"
           sodipodi:nodetypes="sssss" />
        <path
           transform="matrix(1.3452264,0,0,1.3452264,-39.844484,136.62327)"
           style="fill:#ff00ff;fill-opacity:1;stroke:#000000;stroke-width:10;stroke-linejoin:round;stroke-miterlimit:4;stroke-opacity:1"
           d="m 252.53814,296.263 c -8.17722,19.86136 -20.1256,38.89087 -44.95179,38.89087 -24.82619,0 -44.95179,-17.41203 -44.95179,-38.89087 0,-21.47884 20.1256,-38.89087 44.95179,-38.89087 24.82619,0 81.01838,-48.71005 44.95179,38.89087 z"
           id="path4302-1"
           inkscape:connector-curvature="0"
           sodipodi:nodetypes="sssss" />
        <path
           transform="matrix(1.3452264,0,0,1.3452264,101.57687,285.1157)"
           style="fill:#ff00ff;fill-opacity:1;stroke:#000000;stroke-width:10;stroke-linejoin:round;stroke-miterlimit:4;stroke-opacity:1"
           d="m 252.53814,296.263 c 0,21.47884 -20.1256,38.89087 -44.95179,38.89087 -24.82619,0 -44.95179,-17.41203 -44.95179,-38.89087 0,-21.47884 20.1256,-38.89087 44.95179,-38.89087 24.82619,0 44.95179,17.41203 44.95179,38.89087 z"
           id="path4302-7" />
        <path
           transform="matrix(1.3452264,0,0,1.3452264,306.63784,212.38471)"
           style="fill:#ff00ff;fill-opacity:1;stroke:#000000;stroke-width:10;stroke-linejoin:round;stroke-miterlimit:4;stroke-opacity:1"
           d="m 252.53814,296.263 c 0,21.47884 -20.1256,38.89087 -44.95179,38.89087 -24.82619,0 -44.95179,-17.41203 -44.95179,-38.89087 0,-21.47884 20.1256,-38.89087 44.95179,-38.89087 24.82619,0 44.95179,17.41203 44.95179,38.89087 z"
           id="path4302-4" />
        <path
           transform="matrix(1.3452264,0,0,1.3452264,328.8612,14.394812)"
           style="fill:#ff00ff;fill-opacity:1;stroke:#000000;stroke-width:10;stroke-linejoin:round;stroke-miterlimit:4;stroke-opacity:1"
           d="m 252.53814,296.263 c 3.60267,21.17454 -20.1256,38.89087 -44.95179,38.89087 -24.82619,0 -44.95179,-17.41203 -44.95179,-38.89087 0,-21.47884 -24.18014,-97.96519 44.95179,-38.89087 18.87393,16.12807 29.35872,-52.7568 44.95179,38.89087 z"
           id="path4302-0"
           inkscape:connector-curvature="0"
           sodipodi:nodetypes="sssss" />
        <path
           transform="matrix(1.0519994,0,0,1.0519994,201.33765,165.65488)"
           style="fill:#ff0000;fill-opacity:1;stroke:#000000;stroke-width:10;stroke-linejoin:round;stroke-miterlimit:4;stroke-opacity:1"
           d="m 241.01548,301.06411 c 2.04955,18.36827 39.09379,20.26672 -12.16164,28.25174 -7.65278,1.19222 -8.82465,4.39776 -21.26749,5.83802 -24.66153,2.85457 13.01217,-3.94263 -44.95179,-38.89087 -16.49224,-9.94367 -49.65151,-57.09716 0.053,-65.76624 1.96525,-0.34276 -10.37177,24.24285 -6.8706,25.1522 7.26632,1.88726 18.49749,10.95413 24.60851,10.37186 4.39323,-0.4186 20.639,6.8321 25.71184,6.38677 11.49496,-1.0091 7.72327,-19.15378 23.5341,-19.83657 24.80307,-1.07111 8.96218,27.14672 11.34403,48.49309 z"
           id="path4302-48"
           inkscape:connector-curvature="0"
           sodipodi:nodetypes="ssssssssss" />
      </g>
      <path
         style="fill:#ff00ff;fill-opacity:1;stroke:#000000;stroke-width:10;stroke-linejoin:round;stroke-miterlimit:4;stroke-opacity:1"
         d="m 252.53814,296.263 c 0,21.47884 -20.1256,38.89087 -44.95179,38.89087 -24.82619,0 -44.95179,-17.41203 -44.95179,-38.89087 0,-21.47884 27.83606,-56.87396 44.95179,-38.89087 24.82619,26.0843 44.95179,17.41203 44.95179,38.89087 z"
         id="path4302-9"
         inkscape:connector-curvature="0"
         sodipodi:nodetypes="sssss"
         transform="matrix(1.3452264,0,0,1.3452264,181.37892,-126.01639)" />
    </g>
  </g>
</svg>
