<?xml version="1.0" encoding="UTF-8" standalone="no"?>
<!-- Created with Inkscape (http://www.inkscape.org/) -->

<svg
   xmlns:dc="http://purl.org/dc/elements/1.1/"
   xmlns:cc="http://creativecommons.org/ns#"
   xmlns:rdf="http://www.w3.org/1999/02/22-rdf-syntax-ns#"
   xmlns:svg="http://www.w3.org/2000/svg"
   xmlns="http://www.w3.org/2000/svg"
   xmlns:sodipodi="http://sodipodi.sourceforge.net/DTD/sodipodi-0.dtd"
   xmlns:inkscape="http://www.inkscape.org/namespaces/inkscape"
   width="744.09448819"
   height="1052.3622047"
   id="svg2"
   version="1.1"
   inkscape:version="0.48.2 r9819"
   sodipodi:docname="homemadebullet.svg"
   inkscape:export-filename="/Users/claytonmdrazner/Desktop/HackRice14/Images/bullet.png"
   inkscape:export-xdpi="90"
   inkscape:export-ydpi="90">
  <defs
     id="defs4" />
  <sodipodi:namedview
     id="base"
     pagecolor="#ffffff"
     bordercolor="#666666"
     borderopacity="1.0"
     inkscape:pageopacity="0.0"
     inkscape:pageshadow="2"
     inkscape:zoom="0.35"
     inkscape:cx="146.42857"
     inkscape:cy="520"
     inkscape:document-units="px"
     inkscape:current-layer="layer1"
     showgrid="true"
     inkscape:window-width="1666"
     inkscape:window-height="940"
     inkscape:window-x="0"
     inkscape:window-y="0"
     inkscape:window-maximized="0">
    <inkscape:grid
       type="xygrid"
       id="grid2997" />
  </sodipodi:namedview>
  <metadata
     id="metadata7">
    <rdf:RDF>
      <cc:Work
         rdf:about="">
        <dc:format>image/svg+xml</dc:format>
        <dc:type
           rdf:resource="http://purl.org/dc/dcmitype/StillImage" />
        <dc:title></dc:title>
      </cc:Work>
    </rdf:RDF>
  </metadata>
  <g
     inkscape:label="Layer 1"
     inkscape:groupmode="layer"
     id="layer1">
    <path
       sodipodi:type="arc"
       style="fill:#000000;fill-opacity:1;stroke:#ffffff;stroke-opacity:1"
       id="path3001"
       sodipodi:cx="360"
       sodipodi:cy="492.36218"
       sodipodi:rx="120"
       sodipodi:ry="120"
       d="m 480,492.36218 a 120,120 0 1 1 -240,0 120,120 0 1 1 240,0 z" />
    <path
       sodipodi:type="arc"
       style="fill:#ff0000;fill-opacity:1;stroke:#ffffff;stroke-opacity:1"
       id="path2999"
       sodipodi:cx="360"
       sodipodi:cy="492.36218"
       sodipodi:rx="80"
       sodipodi:ry="80"
       d="m 440,492.36218 a 80,80 0 1 1 -160,0 80,80 0 1 1 160,0 z" />
    <path
       sodipodi:type="spiral"
       style="fill:none;stroke:#000000;stroke-width:1px;stroke-linecap:butt;stroke-linejoin:miter;stroke-opacity:1"
       id="path3003"
       sodipodi:cx="360"
       sodipodi:cy="492.36218"
       sodipodi:expansion="1"
       sodipodi:revolution="3"
       sodipodi:radius="89.442719"
       sodipodi:argument="-18.385908"
       sodipodi:t0="0"
       d="m 360,492.36218 c 4.01107,2.00554 -0.7245,6.39631 -3.33333,6.66667 -7.06978,0.73266 -10.93846,-7.3461 -10,-13.33334 1.67869,-10.70977 13.58852,-15.8688 23.33333,-13.33333 14.30092,3.72092 20.90726,19.90189 16.66666,33.33334 -5.65204,17.90201 -26.23863,25.98948 -43.33333,19.99999 C 321.82139,518.15835 312.23944,493.10943 320,472.36218 c 9.39909,-25.1277 38.93949,-36.21107 63.33334,-26.66666 28.74732,11.24775 41.33623,45.29657 29.99999,73.33334 -13.08814,32.36956 -51.65612,46.46673 -83.33334,33.33332 -35.99367,-14.92302 -51.60097,-58.0174 -36.66665,-93.33334 16.75405,-39.61915 64.37995,-56.73793 103.33334,-39.99998 43.24564,18.58229 61.87691,70.74346 43.33331,113.33334" />
  </g>
</svg>
