<?xml version="1.0" encoding="UTF-8" standalone="no"?>
<!-- Created with Inkscape (http://www.inkscape.org/) -->

<svg
   xmlns:dc="http://purl.org/dc/elements/1.1/"
   xmlns:cc="http://creativecommons.org/ns#"
   xmlns:rdf="http://www.w3.org/1999/02/22-rdf-syntax-ns#"
   xmlns:svg="http://www.w3.org/2000/svg"
   xmlns="http://www.w3.org/2000/svg"
   xmlns:sodipodi="http://sodipodi.sourceforge.net/DTD/sodipodi-0.dtd"
   xmlns:inkscape="http://www.inkscape.org/namespaces/inkscape"
   width="744.09448819"
   height="1052.3622047"
   id="svg3774"
   version="1.1"
   inkscape:version="0.48.4 r9939"
   sodipodi:docname="TimeMachine.svg"
   inkscape:export-filename="C:\Users\ethan_000\Documents\GitHub\HackRice14\Images\Machine.png"
   inkscape:export-xdpi="90"
   inkscape:export-ydpi="90">
  <defs
     id="defs3776" />
  <sodipodi:namedview
     id="base"
     pagecolor="#ffffff"
     bordercolor="#666666"
     borderopacity="1.0"
     inkscape:pageopacity="0.0"
     inkscape:pageshadow="2"
     inkscape:zoom="0.49497475"
     inkscape:cx="734.70812"
     inkscape:cy="497.10668"
     inkscape:document-units="px"
     inkscape:current-layer="layer1"
     showgrid="false"
     inkscape:window-width="1366"
     inkscape:window-height="705"
     inkscape:window-x="-8"
     inkscape:window-y="-8"
     inkscape:window-maximized="1" />
  <metadata
     id="metadata3779">
    <rdf:RDF>
      <cc:Work
         rdf:about="">
        <dc:format>image/svg+xml</dc:format>
        <dc:type
           rdf:resource="http://purl.org/dc/dcmitype/StillImage" />
        <dc:title></dc:title>
      </cc:Work>
    </rdf:RDF>
  </metadata>
  <g
     inkscape:label="Layer 1"
     inkscape:groupmode="layer"
     id="layer1">
    <g
       id="g4367"
       inkscape:export-filename="C:\Users\ethan_000\Documents\GitHub\HackRice14\favicon.png"
       inkscape:export-xdpi="10.883984"
       inkscape:export-ydpi="10.883984">
      <g
         id="g4357">
        <path
           sodipodi:type="arc"
           style="fill:#000080;fill-opacity:1;stroke:#000000;stroke-width:10;stroke-miterlimit:4;stroke-dasharray:none;stroke-opacity:1"
           id="path4300"
           sodipodi:cx="426.28436"
           sodipodi:cy="480.61584"
           sodipodi:rx="155.56349"
           sodipodi:ry="153.54318"
           d="m 581.84785,480.61584 a 155.56349,153.54318 0 1 1 -311.12698,0 155.56349,153.54318 0 1 1 311.12698,0 z" />
        <path
           style="fill:#00ffff;fill-opacity:1;stroke:#000000;stroke-width:10;stroke-miterlimit:4;stroke-opacity:1;stroke-dasharray:none"
           d="m 594.97985,629.10827 c -34.62402,40.78994 -145.35706,-68.08156 -145.35706,-68.08156 0,0 -16.60232,154.39939 -69.23945,144.80908 -52.63713,-9.59031 -13.71817,-159.92368 -13.71817,-159.92368 0,0 -142.01496,62.82166 -160.02807,12.44141 -18.01311,-50.38025 131.63889,-91.84212 131.63889,-91.84212 0,0 -125.41263,-91.57773 -90.78862,-132.36767 34.62402,-40.78994 145.35706,68.08156 145.35706,68.08156 0,0 16.60233,-154.39939 69.23946,-144.80908 52.63713,9.59031 13.71816,159.92368 13.71816,159.92368 0,0 142.01497,-62.82166 160.02808,-12.44141 18.01311,50.38025 -131.6389,91.84212 -131.6389,91.84212 0,0 125.41264,91.57773 90.78862,132.36767 z"
           id="path4297"
           inkscape:connector-curvature="0"
           sodipodi:nodetypes="acacacacacaca" />
        <path
           sodipodi:type="arc"
           style="fill:#ff00ff;fill-opacity:1;stroke:#000000;stroke-width:10;stroke-linejoin:round;stroke-miterlimit:4;stroke-opacity:1;stroke-dasharray:none"
           id="path4302"
           sodipodi:cx="207.58635"
           sodipodi:cy="296.263"
           sodipodi:rx="44.95179"
           sodipodi:ry="38.890873"
           d="m 252.53814,296.263 a 44.95179,38.890873 0 1 1 -89.90358,0 44.95179,38.890873 0 1 1 89.90358,0 z"
           transform="matrix(1.3452264,0,0,1.3452264,-16.033815,-55.810795)" />
        <path
           sodipodi:type="arc"
           style="fill:#ff00ff;fill-opacity:1;stroke:#000000;stroke-width:10;stroke-linejoin:round;stroke-miterlimit:4;stroke-opacity:1;stroke-dasharray:none"
           id="path4302-1"
           sodipodi:cx="207.58635"
           sodipodi:cy="296.263"
           sodipodi:rx="44.95179"
           sodipodi:ry="38.890873"
           d="m 252.53814,296.263 a 44.95179,38.890873 0 1 1 -89.90358,0 44.95179,38.890873 0 1 1 89.90358,0 z"
           transform="matrix(1.3452264,0,0,1.3452264,-39.844484,136.62327)" />
        <path
           sodipodi:type="arc"
           style="fill:#ff00ff;fill-opacity:1;stroke:#000000;stroke-width:10;stroke-linejoin:round;stroke-miterlimit:4;stroke-opacity:1;stroke-dasharray:none"
           id="path4302-7"
           sodipodi:cx="207.58635"
           sodipodi:cy="296.263"
           sodipodi:rx="44.95179"
           sodipodi:ry="38.890873"
           d="m 252.53814,296.263 a 44.95179,38.890873 0 1 1 -89.90358,0 44.95179,38.890873 0 1 1 89.90358,0 z"
           transform="matrix(1.3452264,0,0,1.3452264,101.57687,285.1157)" />
        <path
           sodipodi:type="arc"
           style="fill:#ff00ff;fill-opacity:1;stroke:#000000;stroke-width:10;stroke-linejoin:round;stroke-miterlimit:4;stroke-opacity:1;stroke-dasharray:none"
           id="path4302-4"
           sodipodi:cx="207.58635"
           sodipodi:cy="296.263"
           sodipodi:rx="44.95179"
           sodipodi:ry="38.890873"
           d="m 252.53814,296.263 a 44.95179,38.890873 0 1 1 -89.90358,0 44.95179,38.890873 0 1 1 89.90358,0 z"
           transform="matrix(1.3452264,0,0,1.3452264,306.63784,212.38471)" />
        <path
           sodipodi:type="arc"
           style="fill:#ff00ff;fill-opacity:1;stroke:#000000;stroke-width:10;stroke-linejoin:round;stroke-miterlimit:4;stroke-opacity:1;stroke-dasharray:none"
           id="path4302-0"
           sodipodi:cx="207.58635"
           sodipodi:cy="296.263"
           sodipodi:rx="44.95179"
           sodipodi:ry="38.890873"
           d="m 252.53814,296.263 a 44.95179,38.890873 0 1 1 -89.90358,0 44.95179,38.890873 0 1 1 89.90358,0 z"
           transform="matrix(1.3452264,0,0,1.3452264,328.8612,14.394812)" />
        <path
           sodipodi:type="arc"
           style="fill:#ff0000;fill-opacity:1;stroke:#000000;stroke-width:10;stroke-linejoin:round;stroke-miterlimit:4;stroke-opacity:1;stroke-dasharray:none"
           id="path4302-48"
           sodipodi:cx="207.58635"
           sodipodi:cy="296.263"
           sodipodi:rx="44.95179"
           sodipodi:ry="38.890873"
           d="m 252.53814,296.263 a 44.95179,38.890873 0 1 1 -89.90358,0 44.95179,38.890873 0 1 1 89.90358,0 z"
           transform="matrix(1.0519994,0,0,1.0519994,201.33765,165.65488)" />
      </g>
      <path
         transform="matrix(1.3452264,0,0,1.3452264,181.37892,-126.01639)"
         d="m 252.53814,296.263 a 44.95179,38.890873 0 1 1 -89.90358,0 44.95179,38.890873 0 1 1 89.90358,0 z"
         sodipodi:ry="38.890873"
         sodipodi:rx="44.95179"
         sodipodi:cy="296.263"
         sodipodi:cx="207.58635"
         id="path4302-9"
         style="fill:#ff00ff;fill-opacity:1;stroke:#000000;stroke-width:10;stroke-linejoin:round;stroke-miterlimit:4;stroke-opacity:1;stroke-dasharray:none"
         sodipodi:type="arc" />
    </g>
  </g>
</svg>
